<svg viewBox="0 0 426 74" xmlns="http://www.w3.org/2000/svg" fill-rule="evenodd" clip-rule="evenodd" stroke-linejoin="round" stroke-miterlimit="1.414"><path d="M402.23 36h6.38V20.21h11.03V36H426V0h-6.36v13.58h-11.03V0h-6.38v36zM380.82 6.76h5.86V36h6.38V6.76h6.03V0h-18.27v6.76zM364.98 36h15.46v-6.54h-9.17V0h-6.29v36zm-15.17-14.1h-8.85l4.44-12.36 4.41 12.36zM329.42 36h6.54l2.69-7.42h13.49l2.59 7.42h6.54L348.55 0h-6.38l-12.75 36zm-20.09 0h18.04v-6.73h-11.79V19.8h11.79v-6.58h-11.79V6.7h11.79V0h-18.04v36zm-30.2 0h6.39V20.21h11.03V36h6.36V0h-6.36v13.58h-11.03V0h-6.39v36zm-43.42 0H242V12.38L256.13 36h6.05V0h-6.29v23.69L241.75 0h-6.04v36zm-12.2 0h6.25V0h-6.25v36zm-18.64 0h15.46v-6.54h-9.17V0h-6.29v36zm-17.1-29.32c1.67 0 2.82.13 3.45.38.63.26 1.13.68 1.5 1.26.37.58.56 1.26.56 2.05 0 1.32-.37 2.27-1.13 2.84-.75.58-2.13.86-4.13.86h-1.98V6.68h1.73zM179.75 36h6.29V20.75h.58L194.05 36h6.88l-7.83-16.01a9.47 9.47 0 0 0 4.7-3.61 10.625 10.625 0 0 0 1.57-5.93c0-2.25-.48-4.2-1.42-5.85a8.33 8.33 0 0 0-3.74-3.54C192.67.36 190.07 0 186.42 0h-6.67v36zm-23.19 0h18.05v-6.73h-11.8V19.8h11.8v-6.58h-11.8V6.7h11.8V0h-18.05v36zm-12.65-14.41a4.52 4.52 0 0 1 1.61 3.67c0 1.37-.46 2.41-1.37 3.13-.91.72-2.67 1.07-5.28 1.07h-1.58v-9.22h1.31c2.48 0 4.25.45 5.31 1.35zm-4.99-15.05c1.44 0 2.51.32 3.22.99a3.47 3.47 0 0 1 1.06 2.68c0 1.2-.37 2.16-1.12 2.86-.74.7-1.88 1.05-3.41 1.05h-1.38V6.54h1.63zM140.27 36c2.67 0 4.76-.41 6.27-1.24a9.465 9.465 0 0 0 3.72-3.73 10.864 10.864 0 0 0 1.44-5.53c0-2.1-.47-3.93-1.4-5.47a10.573 10.573 0 0 0-4.4-3.85 9.389 9.389 0 0 0 2.6-3.15c.53-1.11.79-2.36.79-3.73 0-2.1-.58-3.93-1.75-5.48a8.867 8.867 0 0 0-4.73-3.19c-1.39-.42-3.6-.63-6.61-.63H131v36h9.27zm280.33 3.19c1.48.79 3.09 2.23 4.82 4.33l-4.64 4.27c-1.63-2.36-3.28-3.55-4.97-3.55-.82 0-1.49.24-2.02.7a2.003 2.003 0 0 0-.78 1.54c0 .58.19 1.12.56 1.63.51.69 2.04 2.16 4.59 4.41a87.944 87.944 0 0 1 4.35 3.93 13.429 13.429 0 0 1 2.69 3.84c.54 1.22.8 2.55.8 3.99 0 2.81-.93 5.14-2.8 6.97-1.86 1.83-4.29 2.75-7.29 2.75-2.35 0-4.39-.6-6.13-1.79-1.73-1.2-3.22-3.08-4.46-5.64l5.26-3.31c1.58 3.02 3.41 4.54 5.47 4.54 1.07 0 1.97-.33 2.71-.98a2.94 2.94 0 0 0 1.09-2.26 4.004 4.004 0 0 0-.82-2.33 25.806 25.806 0 0 0-3.65-3.56c-3.59-3.05-5.9-5.4-6.95-7.05a9.29 9.29 0 0 1-1.57-4.95c0-2.38.87-4.42 2.61-6.12a8.863 8.863 0 0 1 6.44-2.55c1.64 0 3.2.39 4.69 1.19zm-46.29 33.94V38.86h6.01l14.07 22.55V38.86h6.26v34.28h-6.02l-14.06-22.49v22.48h-6.26zm-14.19-25.36a10.077 10.077 0 0 0-7.68-3.38c-3.04 0-5.6 1.1-7.68 3.3-2.07 2.21-3.11 5.01-3.11 8.41 0 3.79 1.31 6.79 3.92 9a10.507 10.507 0 0 0 6.98 2.59c2.97 0 5.5-1.13 7.59-3.36a11.652 11.652 0 0 0 3.13-8.27c0-3.27-1.05-6.03-3.15-8.29zm-16.22-7.36a16.349 16.349 0 0 1 8.61-2.41c4.65 0 8.65 1.75 12 5.27a17.883 17.883 0 0 1 5.02 12.83c0 5-1.65 9.24-4.96 12.7a16.008 16.008 0 0 1-12.02 5.2c-4.94 0-9.04-1.78-12.3-5.34a18.075 18.075 0 0 1-4.9-12.67c0-3.28.76-6.3 2.28-9.04a17.278 17.278 0 0 1 6.27-6.54zm-19.03-1.55h6.21v34.27h-6.21V38.86zm-23.17 0h18.17v6.43h-5.99v27.84h-6.34V45.29h-5.84v-6.43zm-16.24 9.09l-4.41 11.76h8.8l-4.39-11.76zm-3.21-9.09h6.35l12.65 34.27h-6.51l-2.57-7.06h-13.42l-2.68 7.06h-6.5l12.68-34.27zm-40.01 0h6.43l8.28 24.35 8.39-24.35h6.43l-11.85 34.27h-6.03l-11.65-34.27zm-10.54 8.91a10.046 10.046 0 0 0-7.67-3.38c-3.05 0-5.61 1.1-7.68 3.3-2.07 2.21-3.11 5.01-3.11 8.41 0 3.79 1.31 6.79 3.92 9a10.495 10.495 0 0 0 6.98 2.59c2.97 0 5.5-1.13 7.59-3.36a11.703 11.703 0 0 0 3.13-8.27c0-3.27-1.05-6.03-3.16-8.29zm-16.21-7.36a16.324 16.324 0 0 1 8.6-2.41 16.01 16.01 0 0 1 12.01 5.27 17.883 17.883 0 0 1 5.02 12.83c0 5-1.65 9.24-4.96 12.7a16.008 16.008 0 0 1-12.02 5.2 16.006 16.006 0 0 1-12.31-5.34 18.13 18.13 0 0 1-4.9-12.67c0-3.28.77-6.3 2.29-9.04a17.278 17.278 0 0 1 6.27-6.54zm-39.63 32.72V38.86h6.01l14.07 22.55V38.86h6.26v34.28h-6.02l-14.06-22.49v22.48h-6.26zm-32.72-34.27h6l14.07 22.55V38.86h6.26v34.28h-6.02L149.4 50.65v22.48h-6.26V38.86zm-12.14 0h6.22v34.27H131V38.86zM38 0h35v36H38zm0 38h35v36H38zm57.5-2c9.66 0 17.5-8.06 17.5-18S105.16 0 95.5 0 78 8.06 78 18s7.84 18 17.5 18M78 38h35v36H78zM35 18c0-9.94-7.46-18-16.67-18H0v36h18.33C27.54 36 35 27.94 35 18m0 38c0-9.94-7.46-18-16.67-18H0v36h18.33C27.54 74 35 65.94 35 56" fill="#fff" fill-rule="nonzero"/></svg>