<svg viewBox="0 0 190 23" xmlns="http://www.w3.org/2000/svg" fill-rule="evenodd" clip-rule="evenodd" stroke-linejoin="round" stroke-miterlimit="1.414"><path d="M144.716 15.044c-1.004 3.264-3.824 4.732-7.146 4.732-4.153 0-7.533-2.337-7.533-7.552 0-5.196 3.38-7.533 7.533-7.533 3.322 0 6.142 1.468 7.146 4.713h-3.9c-.6-1.7-1.817-2.279-3.246-2.279-2.009 0-3.63 1.197-3.63 5.099 0 3.901 1.621 5.118 3.63 5.118 1.43 0 2.646-.579 3.245-2.298h3.901zm38.13-4.346c1.216 0 2.201.792 2.201 3.38 0 2.569-.985 3.38-2.202 3.38s-2.202-.811-2.202-3.38c0-2.588.985-3.38 2.202-3.38zm0-2.318c3.128 0 5.697 1.758 5.697 5.698 0 3.94-2.569 5.698-5.698 5.698-3.129 0-5.698-1.758-5.698-5.698 0-3.94 2.57-5.698 5.698-5.698zm-10.006 9.272c-.85.656-1.97.965-3.149.965-2.723 0-4.964-1.564-4.964-5.118 0-3.535 2.241-5.119 4.964-5.119 1.236 0 2.357.329 3.206 1.024l.136-.657h3.051v9.271c0 2.821-1.815 4.54-5.35 4.54-2.53 0-4.655-1.14-4.945-3.149h3.187c.194.367.773.889 1.912.889 1.565 0 1.952-.657 1.952-1.971v-.675zm-2.357-6.857c1.197 0 2.202.618 2.202 2.646 0 1.989-1.005 2.627-2.202 2.627-1.217 0-2.26-.638-2.26-2.627 0-2.028 1.043-2.646 2.26-2.646zM39.604 16.338v3.071h-9.948V4.691h3.71v11.647h6.238zm7.706 1.97c-.347.425-1.332 1.468-3.206 1.468-1.874 0-3.805-1.255-3.805-3.38V8.747h3.496v7.031c0 .541.444 1.429 1.642 1.429 1.236 0 1.68-1.139 1.68-1.699V8.747h3.477v10.662h-3.052l-.232-1.101zm113.535-8.46c.444-.599 1.332-1.468 3.283-1.468v2.724c-.695-.155-1.197-.155-1.429-.155-1.275 0-1.642 1.198-1.642 1.7v6.76h-3.496V8.747h3.052l.232 1.101zm-68.009 0c.348-.425 1.313-1.468 3.206-1.468 1.855 0 3.786 1.256 3.786 3.361v7.668h-3.496v-7.031c0-.56-.444-1.429-1.642-1.429-1.217 0-1.66 1.159-1.66 1.7v6.76h-3.477V8.747h3.051l.232 1.101zm-22.52-.212c.172-.174 1.138-1.256 3.012-1.256 1.873 0 3.786 1.275 3.786 3.38v7.668l-3.477-.019v-6.992c0-.521-.464-1.468-1.66-1.468-1.218 0-1.662 1.178-1.662 1.719v6.741l-3.477.019V4.691h3.477v4.945zm-11.243 1.468V8.747h1.487V5.425h3.496v3.322h1.913v2.357h-1.913v5.08c0 .424.174.811 1.16.811h.753v2.414h-2.492c-1.758 0-2.917-1.159-2.917-2.897v-5.408h-1.487zm-7.61-2.357v2.357h1.487v8.305h3.496v-8.305h1.932V8.747h-1.932v-.869c0-.425.174-.83 1.18-.83h.83V4.691h-2.589c-1.7 0-2.917 1.236-2.917 2.897v1.159h-1.487zm59.51 7.572c0-3.013-2.782-3.129-4.848-3.554-1.159-.232-1.777-.56-1.7-1.14.058-.598.425-.927 1.526-.927 1.217 0 1.584.502 1.584 1.545h3.071c0-2.781-1.835-3.863-4.848-3.863-3.573 0-4.81 1.854-4.81 3.554 0 .947.6 1.835 1.41 2.241.754.405 1.97.676 3.052.946 1.101.271 2.067.483 2.067 1.236 0 .773-.58 1.101-1.796 1.101-1.159 0-1.855-.541-1.855-1.719h-3.245c0 3.129 2.318 4.037 5.235 4.037 3.573 0 5.157-1.738 5.157-3.457zm38.96-4.076h-3.13c0-2.453 1.873-3.863 4.674-3.863 3.592 0 5.002 1.854 5.002 3.554v6.143c0 .212 0 .985.271 1.332h-3.342l-.173-.946c-.696.715-1.449 1.178-3.284 1.313-2.125.174-4.056-.811-4.056-3.148v-.232c0-1.004.772-2.067 1.68-2.511 1.043-.483 2.241-.657 3.786-.947 1.545-.27 1.796-.656 1.796-1.139 0-.676-.405-1.004-1.622-1.004s-1.603.54-1.603 1.448zm3.224 2.26l-2.26.599c-.598.154-1.41.29-1.468 1.12-.058.831.638 1.352 1.932 1.178 1.294-.193 1.796-1.294 1.796-2.047v-.85zm-37.355-2.26h-3.149c0-2.453 1.874-3.863 4.694-3.863 3.573 0 4.983 1.854 4.983 3.554v6.143c0 .212 0 .985.29 1.332h-3.342l-.193-.946c-.714.715-1.429 1.178-3.264 1.313-2.144.174-4.075-.811-4.075-3.148v-.232c0-1.004.772-2.067 1.7-2.511 1.023-.483 2.24-.657 3.785-.947 1.545-.27 1.796-.656 1.796-1.139 0-.676-.405-1.004-1.64-1.004-1.218 0-1.585.54-1.585 1.448zm3.225 2.26l-2.279.599c-.618.154-1.41.29-1.468 1.12-.058.831.657 1.352 1.951 1.178 1.275-.193 1.796-1.294 1.796-2.047v-.85zm-37.104-2.26h-3.129c0-2.453 1.854-3.863 4.674-3.863 3.574 0 4.984 1.854 4.984 3.554v6.143c0 .212 0 .985.29 1.332H85.4l-.174-.946c-.696.715-1.449 1.178-3.284 1.313-2.124.174-4.075-.811-4.075-3.148v-.232c0-1.004.811-2.067 1.7-2.511 1.062-.483 2.24-.657 3.785-.947 1.545-.27 1.797-.656 1.797-1.139 0-.676-.406-1.004-1.604-1.004-1.236 0-1.622.54-1.622 1.448zm3.226 2.26l-2.28.599c-.579.154-1.39.29-1.448 1.12-.078.831.637 1.352 1.931 1.178 1.294-.193 1.797-1.294 1.797-2.047v-.85zM12.485.442c6.084 0 11.068 4.983 11.068 11.067 0 6.065-4.984 11.049-11.068 11.049-6.065 0-11.029-4.984-11.029-11.049C1.456 5.425 6.42.442 12.486.442zm0 .83c5.621 0 10.237 4.636 10.237 10.237 0 5.582-4.616 10.218-10.237 10.218-5.582 0-10.218-4.636-10.218-10.218 0-5.601 4.636-10.237 10.218-10.237zm5.196 15.221c-4.906-.792-9.426-4.849-14.39-6.838l.058-.367 1.545.444.155-.309 4.79 2.067.058.27-2.859-1.023v.115c1.545.966 3.091 1.623 4.597 1.198 1.101-.232 2.376-1.622 2.917-2.665l1.583-.136c1.932-.115 3.941.329 5.853.638l-.27.367a35.344 35.344 0 0 0-4.926-.464l-.212.271c1.642.115 3.206.231 4.79.502l-.406.386c-1.583-.212-3.206-.386-4.809-.309l-.213.271c1.546.038 3.245.135 4.733.328l-.348.405c-1.584-.096-3.206-.289-4.79-.135l-.174.309a39.974 39.974 0 0 1 4.616.174l-.289.367c-1.739-.058-3.612-.135-5.389.406l-1.39.541.25.347c1.68 1.565 3.342 2.048 5.041 2.086l-.386.754h-.135z" fill="#fff"/></svg>