<svg viewBox="0 0 150 54" xmlns="http://www.w3.org/2000/svg" fill-rule="evenodd" clip-rule="evenodd" stroke-linejoin="round" stroke-miterlimit="1.414"><path d="M10.051 50.379l-2.677-9.853h-.033l-2.71 9.853H3.005L0 38.653h1.593l2.299 9.756h.033l2.628-9.756h1.691l2.595 9.756h.033l2.381-9.756h1.561l-3.137 11.726h-1.626zm11.085-.542c-.635.482-1.434.723-2.397.723-.679 0-1.268-.109-1.766-.328a3.48 3.48 0 0 1-1.256-.92 3.904 3.904 0 0 1-.764-1.412 6.809 6.809 0 0 1-.287-1.791c0-.646.098-1.237.295-1.773a4.23 4.23 0 0 1 .83-1.396 3.758 3.758 0 0 1 1.264-.92 3.877 3.877 0 0 1 1.602-.328c.755 0 1.382.156 1.88.468.498.312.898.709 1.199 1.19.301.483.509 1.008.624 1.577.115.57.161 1.112.14 1.626h-6.356c-.011.372.033.725.131 1.059.099.334.257.63.477.887.218.257.498.463.837.616.339.153.739.23 1.199.23.591 0 1.076-.137 1.453-.411.378-.274.627-.69.748-1.248h1.379c-.186.953-.597 1.67-1.232 2.151zm-.336-5.452a2.388 2.388 0 0 0-.509-.764 2.432 2.432 0 0 0-.755-.509 2.406 2.406 0 0 0-.961-.189c-.361 0-.687.064-.977.189-.29.126-.54.299-.748.518a2.464 2.464 0 0 0-.492.763c-.121.29-.192.6-.214.928h4.878a2.861 2.861 0 0 0-.222-.936zm12.785-1.018c-.351-.296-.821-.444-1.412-.444-.504 0-.925.094-1.265.28-.339.186-.61.432-.813.739a3.119 3.119 0 0 0-.435 1.059c-.088.4-.131.813-.131 1.24 0 .394.046.777.139 1.149.093.373.238.704.435.994.198.29.455.523.772.698.318.175.696.263 1.134.263.689 0 1.228-.181 1.617-.542.389-.361.627-.871.715-1.528h1.428c-.153 1.052-.544 1.862-1.174 2.431-.629.569-1.486.854-2.57.854-.646 0-1.218-.104-1.716-.312a3.332 3.332 0 0 1-1.248-.887 3.837 3.837 0 0 1-.756-1.371 5.712 5.712 0 0 1-.254-1.749c0-.635.082-1.229.246-1.782a4.11 4.11 0 0 1 .747-1.445 3.509 3.509 0 0 1 1.257-.969c.503-.236 1.089-.353 1.757-.353.482 0 .933.057 1.355.172a3.3 3.3 0 0 1 1.116.534c.323.241.589.545.797.911.208.367.339.802.394 1.306h-1.445c-.11-.537-.34-.953-.69-1.248zm5.009-1.478v1.79h.033c.339-.69.755-1.199 1.248-1.528.493-.328 1.117-.481 1.872-.459v1.478c-.558 0-1.034.076-1.428.23a2.237 2.237 0 0 0-.953.673 2.8 2.8 0 0 0-.526 1.076 5.824 5.824 0 0 0-.164 1.453v3.777H37.28v-8.49h1.314zm9.92 7.948c-.635.482-1.435.723-2.398.723-.679 0-1.267-.109-1.766-.328a3.48 3.48 0 0 1-1.256-.92 3.919 3.919 0 0 1-.764-1.412 6.85 6.85 0 0 1-.287-1.791c0-.646.099-1.237.296-1.773a4.227 4.227 0 0 1 .829-1.396 3.752 3.752 0 0 1 1.265-.92 3.869 3.869 0 0 1 1.601-.328c.755 0 1.382.156 1.88.468.498.312.898.709 1.199 1.19.301.483.509 1.008.624 1.577a6.76 6.76 0 0 1 .14 1.626h-6.356c-.011.372.033.725.131 1.059.099.334.257.63.477.887.218.257.498.463.837.616.34.153.739.23 1.199.23.591 0 1.076-.137 1.454-.411.377-.274.626-.69.747-1.248h1.379c-.186.953-.597 1.67-1.231 2.151zm-.337-5.452a2.405 2.405 0 0 0-.509-.764 2.4 2.4 0 0 0-1.716-.698c-.362 0-.687.064-.978.189a2.26 2.26 0 0 0-.747.518 2.464 2.464 0 0 0-.492.763c-.121.29-.192.6-.214.928h4.878a2.913 2.913 0 0 0-.222-.936zm10.666 5.962c-.241.142-.575.213-1.002.213-.361 0-.648-.101-.862-.304-.213-.202-.32-.533-.32-.993a3.33 3.33 0 0 1-1.338.993c-.51.203-1.06.304-1.651.304a4.45 4.45 0 0 1-1.092-.131 2.55 2.55 0 0 1-.895-.411 1.964 1.964 0 0 1-.6-.731c-.147-.301-.221-.665-.221-1.092 0-.482.082-.876.246-1.182.164-.307.38-.556.649-.748a3 3 0 0 1 .919-.435c.345-.098.698-.18 1.06-.246a13.31 13.31 0 0 1 1.092-.173c.345-.037.649-.093.911-.164.263-.071.471-.175.624-.312.154-.137.23-.336.23-.599 0-.306-.057-.553-.172-.739a1.179 1.179 0 0 0-.444-.427 1.77 1.77 0 0 0-.607-.197 4.583 4.583 0 0 0-.665-.05c-.592 0-1.084.113-1.478.337-.395.224-.608.649-.641 1.273H51.19c.022-.526.132-.969.329-1.33.197-.362.459-.655.788-.879a3.318 3.318 0 0 1 1.125-.485 5.969 5.969 0 0 1 1.355-.147c.383 0 .763.027 1.141.082.378.055.72.166 1.027.336.306.169.553.407.739.713.186.305.279.704.279 1.196v4.359c0 .328.019.569.057.721.039.153.167.229.386.229.121 0 .263-.022.427-.065v1.084zm-2.266-4.353a1.738 1.738 0 0 1-.69.287c-.285.06-.583.109-.895.146a36.8 36.8 0 0 0-.944.131 3.523 3.523 0 0 0-.854.237 1.544 1.544 0 0 0-.616.466c-.159.202-.238.477-.238.825 0 .229.046.422.139.58.093.158.214.286.362.384.147.098.32.169.517.213.197.043.405.065.624.065.46 0 .854-.063 1.183-.188.328-.126.596-.283.804-.474a1.87 1.87 0 0 0 .46-.621c.099-.223.148-.433.148-.629v-1.422zm7.193-4.105v1.231h-1.691v5.272c0 .164.013.296.041.394a.399.399 0 0 0 .156.23.678.678 0 0 0 .32.107c.137.016.314.025.534.025h.64v1.231h-1.067c-.362 0-.671-.024-.928-.073a1.372 1.372 0 0 1-.624-.271 1.156 1.156 0 0 1-.353-.559c-.077-.241-.115-.558-.115-.952V43.12h-1.446v-1.231h1.446v-2.546h1.396v2.546h1.691zm7.554 7.948c-.635.482-1.434.723-2.397.723-.679 0-1.268-.109-1.766-.328a3.48 3.48 0 0 1-1.256-.92 3.904 3.904 0 0 1-.764-1.412 6.809 6.809 0 0 1-.287-1.791c0-.646.098-1.237.295-1.773a4.23 4.23 0 0 1 .83-1.396 3.758 3.758 0 0 1 1.264-.92 3.875 3.875 0 0 1 1.601-.328c.756 0 1.383.156 1.881.468.498.312.898.709 1.199 1.19.301.483.509 1.008.624 1.577.115.57.161 1.112.14 1.626h-6.356c-.011.372.033.725.132 1.059.098.334.256.63.476.887.218.257.498.463.837.616.34.153.739.23 1.199.23.592 0 1.076-.137 1.454-.411.377-.274.627-.69.747-1.248h1.38c-.188.953-.598 1.67-1.233 2.151zm-.336-5.452a2.388 2.388 0 0 0-.509-.764 2.444 2.444 0 0 0-.755-.509 2.41 2.41 0 0 0-.961-.189c-.361 0-.687.064-.977.189-.29.126-.54.299-.748.518a2.464 2.464 0 0 0-.492.763c-.121.29-.192.6-.214.928h4.878a2.913 2.913 0 0 0-.222-.936zm12.785-1.018c-.351-.296-.822-.444-1.413-.444-.503 0-.925.094-1.264.28a2.248 2.248 0 0 0-.813.739 3.099 3.099 0 0 0-.435 1.059c-.088.4-.131.813-.131 1.24 0 .394.046.777.139 1.149.093.373.238.704.435.994.198.29.454.523.772.698.317.175.695.263 1.133.263.69 0 1.229-.181 1.618-.542.388-.361.626-.871.714-1.528h1.429c-.154 1.052-.545 1.862-1.174 2.431-.63.569-1.487.854-2.571.854-.646 0-1.218-.104-1.716-.312a3.332 3.332 0 0 1-1.248-.887 3.82 3.82 0 0 1-.755-1.371 5.712 5.712 0 0 1-.255-1.749c0-.635.083-1.229.246-1.782a4.11 4.11 0 0 1 .748-1.445 3.505 3.505 0 0 1 1.256-.969c.504-.236 1.089-.353 1.758-.353.481 0 .933.057 1.355.172a3.3 3.3 0 0 1 1.116.534c.323.241.588.545.797.911.207.367.339.802.394 1.306h-1.446c-.109-.537-.339-.953-.689-1.248zm5.14-4.714v4.484h.033c.109-.263.263-.485.46-.665.197-.181.418-.329.665-.444a3.46 3.46 0 0 1 .772-.254c.267-.055.528-.082.78-.082.558 0 1.023.076 1.396.23.372.153.674.366.903.64.23.274.391.6.484.977.093.378.14.797.14 1.257v5.583H93.15v-5.748c0-.525-.154-.941-.46-1.248-.307-.306-.728-.46-1.264-.46-.428 0-.797.066-1.109.197a2.085 2.085 0 0 0-.78.559 2.408 2.408 0 0 0-.468.846 3.439 3.439 0 0 0-.156 1.059v4.795h-1.396V38.653h1.396zm13.747 11.184c-.636.482-1.435.723-2.398.723-.679 0-1.268-.109-1.766-.328a3.492 3.492 0 0 1-1.257-.92 3.902 3.902 0 0 1-.763-1.412 6.808 6.808 0 0 1-.288-1.791c0-.646.099-1.237.296-1.773a4.245 4.245 0 0 1 .829-1.396 3.758 3.758 0 0 1 1.264-.92 3.877 3.877 0 0 1 1.602-.328c.755 0 1.382.156 1.88.468.498.312.898.709 1.199 1.19.301.483.509 1.008.624 1.577a6.76 6.76 0 0 1 .14 1.626h-6.356c-.011.372.032.725.131 1.059.099.334.257.63.477.887.218.257.498.463.837.616.339.153.739.23 1.199.23.591 0 1.075-.137 1.454-.411.377-.274.626-.69.747-1.248h1.379c-.185.953-.596 1.67-1.23 2.151zm-.338-5.452a2.388 2.388 0 0 0-.509-.764 2.432 2.432 0 0 0-.755-.509 2.406 2.406 0 0 0-.961-.189c-.361 0-.687.064-.977.189a2.25 2.25 0 0 0-.747.518 2.467 2.467 0 0 0-.493.763c-.12.29-.192.6-.214.928h4.878a2.861 2.861 0 0 0-.222-.936zm4.459-2.496v1.248h.033c.635-.964 1.549-1.445 2.743-1.445a3.09 3.09 0 0 1 1.429.328c.427.219.728.591.902 1.117.285-.46.66-.816 1.126-1.068a3.18 3.18 0 0 1 1.535-.377c.427 0 .813.047 1.158.139.345.093.64.238.887.435.246.198.438.452.574.764.138.312.206.687.206 1.125v6.224h-1.396v-5.567c0-.263-.023-.509-.066-.739a1.517 1.517 0 0 0-.246-.599 1.243 1.243 0 0 0-.502-.403c-.213-.098-.49-.148-.829-.148-.69 0-1.232.197-1.625.592-.395.394-.592.919-.592 1.576v5.288h-1.396v-5.567c0-.274-.025-.526-.074-.755a1.594 1.594 0 0 0-.255-.6 1.185 1.185 0 0 0-.484-.394c-.202-.093-.463-.14-.78-.14-.405 0-.752.082-1.043.247a2.364 2.364 0 0 0-1.1 1.305 2.04 2.04 0 0 0-.124.616v5.288h-1.396v-8.49h1.315zm12.777-1.528v-1.708h1.397v1.708h-1.397zm1.396 1.528v8.49h-1.396v-8.49h1.396zm3.236 6.593c.131.214.303.384.517.509.213.126.454.216.722.271.268.055.545.082.83.082.218 0 .448-.016.689-.049.241-.033.463-.093.666-.181a1.25 1.25 0 0 0 .501-.386c.131-.169.197-.385.197-.648 0-.362-.137-.635-.411-.821a3.468 3.468 0 0 0-1.026-.452 16.57 16.57 0 0 0-1.339-.312 6.99 6.99 0 0 1-1.338-.394 2.772 2.772 0 0 1-1.027-.715c-.273-.306-.41-.733-.41-1.281 0-.427.096-.793.288-1.1a2.34 2.34 0 0 1 .738-.747 3.382 3.382 0 0 1 1.019-.427c.377-.093.752-.14 1.125-.14.481 0 .925.041 1.33.123.405.082.763.225 1.075.427.313.203.561.477.748.822.185.344.295.774.328 1.289h-1.396a1.42 1.42 0 0 0-.213-.682 1.406 1.406 0 0 0-.46-.435 2.11 2.11 0 0 0-.616-.238 3.194 3.194 0 0 0-.682-.074c-.208 0-.419.016-.632.049a2.122 2.122 0 0 0-.583.173 1.18 1.18 0 0 0-.428.328.832.832 0 0 0-.164.534c0 .241.085.441.255.599.17.159.386.29.649.394.263.105.559.192.887.263.329.071.657.145.985.222.35.077.692.17 1.026.279.334.11.63.255.887.435.257.181.466.409.624.682.159.274.238.613.238 1.018 0 .515-.107.942-.32 1.281-.214.34-.492.613-.838.821a3.474 3.474 0 0 1-1.166.435 6.836 6.836 0 0 1-1.289.124c-.471 0-.92-.05-1.347-.148a3.293 3.293 0 0 1-1.132-.485 2.453 2.453 0 0 1-.789-.887c-.197-.366-.307-.812-.329-1.338h1.396c.012.307.083.567.215.78zm10.773-6.593v1.231h-1.692v5.272c0 .164.014.296.042.394a.399.399 0 0 0 .156.23.677.677 0 0 0 .319.107c.138.016.315.025.534.025h.641v1.231h-1.068c-.361 0-.671-.024-.927-.073a1.376 1.376 0 0 1-.625-.271 1.154 1.154 0 0 1-.352-.559c-.077-.241-.115-.558-.115-.952V43.12h-1.446v-1.231h1.446v-2.546h1.396v2.546h1.691zm2.808 0v1.79h.032c.339-.69.756-1.199 1.248-1.528.493-.328 1.117-.481 1.872-.459v1.478c-.558 0-1.034.076-1.428.23a2.243 2.243 0 0 0-.953.673 2.8 2.8 0 0 0-.526 1.076 5.827 5.827 0 0 0-.163 1.453v3.777h-1.397v-8.49h1.315zm7.538 9.624a8.997 8.997 0 0 1-.484 1.051 2.89 2.89 0 0 1-.526.698c-.191.18-.405.312-.64.394a2.468 2.468 0 0 1-.813.123c-.164 0-.328-.011-.492-.033a2.338 2.338 0 0 1-.477-.115V52.35a2.389 2.389 0 0 0 .821.197c.285 0 .523-.068.715-.205.191-.137.337-.331.435-.583l.575-1.429-3.367-8.441h1.577l2.48 6.947h.032l2.382-6.947h1.478l-3.696 9.624zM53.383.798h14.856c5.453 0 7.944 3.636 7.944 6.959 0 2.394-.92 3.939-3.389 5.376 3.114 1.151 4.807 3.228 4.807 6.431 0 3.831-2.782 7.896-9.342 7.896H53.376L53.383.798zm8.113 20.642h5.376c1.915 0 2.776-1.369 2.776-2.58 0 .561.246-2.209-2.504-2.209h-5.648v4.789zm.019-10.144h4.32c1.975 0 2.762-.92 2.762-2.269 0-.312-.097-2.052-2.195-2.052h-4.887v4.321zM86.051.798h8.59l9.783 26.631h-8.816l-1.291-3.988h-8.23l-1.094 3.968h-8.75L86.051.798zm3.945 7.903l-2.268 8.894h4.848l-2.58-8.894zm28.129.017h8.191c0-4.521-3.402-8.718-11.475-8.718-8.855 0-11.598 4.887-11.598 8.464 0 5.768 7.059 7.301 7.277 7.369 1.055.332 5.436 1.506 6.529 1.896.947.339 1.854 1.098 1.854 2.111 0 1.557-1.854 2.305-3.398 2.305-.99 0-4.322-.328-4.322-3.859h-8.463c0 4.689 3.227 9.938 12.277 9.938 9.988 0 12.078-5.959 12.078-9.126 0-2.586-1.465-5.454-4.846-6.819-2.033-.821-5.404-1.541-7.096-2.035-.854-.25-3.697-.826-3.697-2.561 0-2.223 3.664-1.936 3.129-1.936 1.658 0 3.56.932 3.56 2.971zM128.467.792h20.445v7.037h-12.275v4.691h10.945v6.725h-10.984v8.21h-8.17l.039-26.663z" fill="#fff" fill-rule="nonzero"/><path d="M.054.798v26.665h26.665V.798H.054zm18.46 18.46H8.258V9.002h10.256v10.256z" fill="#fff" fill-opacity=".6" fill-rule="nonzero"/><path fill="#fff" fill-opacity=".6" d="M34.923 9.002h10.256v10.256H34.923z"/></svg>